PathFileType	4	(X/Y/Z)	G:\GRF\jawan data\CompiledGRF\03. Mohit Kumar\0231~ac~Walking 01_markers.trc
DataRate	CameraRate	NumFrames	NumMarkers	Units	OrigDataRate	OrigDataStartFrame	OrigNumFrames
100.000000	100.000000	4	18	mm	100.000000	301	805
Frame#	Time	c7			r should			l should			sacrum			r asis			r bar 1			r knee 1			r bar 2			r mall			r heel			r met			l asis			l bar 1			l knee 1			l bar 2			l mall			l heel			l met			
		X1	Y1	Z1	X2	Y2	Z2	X3	Y3	Z3	X4	Y4	Z4	X5	Y5	Z5	X6	Y6	Z6	X7	Y7	Z7	X8	Y8	Z8	X9	Y9	Z9	X10	Y10	Z10	X11	Y11	Z11	X12	Y12	Z12	X13	Y13	Z13	X14	Y14	Z14	X15	Y15	Z15	X16	Y16	Z16	X17	Y17	Z17	X18	Y18	Z18	

302	3.01	-635.310302734375	1516.26318359375	240.1165161132813	-539.679931640625	1462.53564453125	407.7446899414063	-557.5810546875	1459.228759765625	68.07247924804688	-653.6698608398438	1048.85400390625	224.3317108154297	-484.8309631347656	1013.902893066406	367.326416015625	-546.1134643554688	601.6986083984375	441.3128051757813	-515.508056640625	518.3331909179688	409.4957580566406	-778.227783203125	338.699462890625	416.9688720703125	-862.7909545898438	239.2269897460938	355.99365234375	-913.3896484375	263.6726379394531	297.7555541992188	-824.9889526367188	95.55455780029297	358.7828979492188	-455.9774780273438	1033.272705078125	119.1941146850586	-456.9121704101563	606.9711303710938	54.83477401733398	-440.1815185546875	524.9083862304688	115.9833221435547	-474.2870483398438	243.3509521484375	72.57524108886719	-480.6606140136719	75.63547515869141	145.5773315429688	-544.887451171875	38.31314086914063	193.7973022460938	-335.2410278320313	42.34748458862305	174.8224029541016	
303	3.02	-625.9168090820313	1517.612915039063	238.5869598388672	-531.6919555664063	1463.272705078125	406.8536071777344	-546.7396850585938	1460.268432617188	67.09256744384766	-645.3187255859375	1050.466430664063	223.6532287597656	-475.1140747070313	1016.30224609375	365.4792175292969	-528.3668212890625	603.2584228515625	441.1424255371094	-495.8603515625	520.9421997070313	409.5066833496094	-758.2655029296875	341.6839599609375	414.7959899902344	-842.6283569335938	241.9176788330078	353.541015625	-892.8418579101563	264.6580200195313	293.87744140625	-802.3944091796875	99.36713409423828	359.1452331542969	-448.3160400390625	1033.714721679688	117.0701751708984	-453.8227233886719	606.8399658203125	54.17140960693359	-437.7924194335938	524.5484008789063	115.39697265625	-473.3842163085938	243.2597503662109	72.42218780517578	-480.4653015136719	75.54362487792969	145.6456298828125	-544.7564086914063	38.26487350463867	193.9110107421875	-335.2859191894531	42.31152725219727	174.7371826171875	
304	3.03	-616.5789794921875	1518.817016601563	237.1461334228516	-523.82861328125	1463.9892578125	406.0113220214844	-536.492919921875	1461.518188476563	66.25412750244141	-636.9290771484375	1052.010986328125	223.13623046875	-465.7948913574219	1018.502807617188	363.5317993164063	-510.6837768554688	605.0287475585938	441.0950622558594	-476.6790161132813	523.6689453125	409.4158020019531	-738.1043701171875	343.9499816894531	412.6394958496094	-821.6573486328125	243.4237670898438	351.1152038574219	-871.9452514648438	264.5387573242188	290.3836059570313	-778.6364135742188	102.4404907226563	359.031494140625	-440.8414306640625	1034.210327148438	114.946044921875	-451.0667419433594	606.696533203125	53.41334533691406	-435.7187805175781	524.0757446289063	114.7414855957031	-472.5805358886719	243.1996154785156	72.27772521972656	-480.4236145019531	75.55059814453125	145.7441864013672	-544.6288452148438	38.24945449829102	194.0406494140625	-335.3219604492188	42.23046875	174.7092895507813	
305	3.04	-607.532958984375	1519.91357421875	235.7715911865234	-516.14501953125	1464.675170898438	405.2510070800781	-526.14013671875	1462.804321289063	65.39579010009766	-628.6903686523438	1053.46533203125	222.7715606689453	-456.6234130859375	1020.70166015625	361.3970031738281	-492.7750244140625	606.8998413085938	441.2835693359375	-457.5906372070313	526.3621826171875	409.3249206542969	-717.8017578125	345.5072021484375	410.4771728515625	-799.8712158203125	243.7162933349609	348.8572692871094	-850.752197265625	263.3414001464844	287.5057983398438	-752.67578125	104.8125076293945	358.9319458007813	-433.8207397460938	1034.568969726563	112.8426742553711	-448.5324401855469	606.4404296875	52.61616516113281	-434.0757751464844	523.5975341796875	113.9604873657227	-471.9619445800781	243.1517333984375	72.10331726074219	-480.4534606933594	75.598388671875	145.8630218505859	-545.002197265625	38.50055313110352	194.1613922119141	-335.2981262207031	42.19674682617188	174.6916809082031	
